<?xml version="1.0" encoding="UTF-8"?><svg xmlns="http://www.w3.org/2000/svg" viewBox="0 0 400 150"><defs><style>.cls-1{fill:#cf0;}.cls-2{fill:#1d1d1b;}</style></defs><g id="CD_Raster"><rect class="cls-1" y="25" width="175" height="100"/><rect class="cls-1" x="125" width="125" height="50"/><rect class="cls-1" x="250" y="12.5" width="75" height="100"/><rect class="cls-1" x="50" y="112.5" width="75" height="37.5"/><rect class="cls-1" x="125" y="50" width="175" height="50"/><rect class="cls-1" x="250" y="125" width="150" height="25"/></g><g id="Logo_3-zeilig"><polygon class="cls-2" points="43.18 25 102.31 25 102.31 38.67 61.36 38.67 61.36 70.45 43.18 70.45 43.18 25"/><polygon class="cls-2" points="61.36 70.45 97.73 70.45 97.73 84.13 61.36 84.13 61.36 70.45"/><polygon class="cls-2" points="25 88.64 43.18 88.64 43.18 125 25 125 25 88.64"/><path class="cls-2" d="M299.76,59.72c1.43,0,2.44-1.05,2.44-2.44s-1.01-2.44-2.44-2.44-2.44,1.05-2.44,2.44,1.01,2.44,2.44,2.44Z"/><path class="cls-2" d="M292.03,59.72c1.43,0,2.44-1.05,2.44-2.44s-1.01-2.44-2.44-2.44-2.44,1.05-2.44,2.44,1.01,2.44,2.44,2.44Z"/><path class="cls-2" d="M125,73.6v-12.2h5.14v12.72c0,4.45,1.4,5.99,3.95,5.99s4.03-1.54,4.03-5.99v-12.72h4.95v12.2c0,7.63-3.1,10.95-8.98,10.95s-9.08-3.32-9.08-10.95Z"/><path class="cls-2" d="M147.79,61.4h5.27l5.93,11.3,2.25,4.99h.14c-.24-2.4-.66-5.59-.66-8.27v-8.03h4.9v22.73h-5.27l-5.93-11.33-2.25-4.96h-.14c.24,2.51.66,5.55.66,8.23v8.07h-4.9v-22.73Z"/><path class="cls-2" d="M170.74,61.4h5.14v22.73h-5.14v-22.73Z"/><path class="cls-2" d="M178.48,61.4h5.44l2.74,10.59c.68,2.49,1.13,4.78,1.82,7.29h.14c.69-2.51,1.17-4.8,1.82-7.29l2.68-10.59h5.25l-6.85,22.73h-6.17l-6.87-22.73Z"/><path class="cls-2" d="M200.9,61.4h14.24v4.31h-9.1v4.56h7.75v4.31h-7.75v5.24h9.45v4.31h-14.59v-22.73Z"/><path class="cls-2" d="M237.96,84.13l-5.14-9.09c2.43-1.1,4.05-3.22,4.05-6.56,0-5.4-3.95-7.08-8.77-7.08h-8.19v22.73h5.14v-8.18h2.83l4.34,8.18h5.75ZM225.05,65.48h2.63c2.7,0,4.15.75,4.15,3s-1.45,3.39-4.15,3.39h-2.63v-6.39Z"/><path class="cls-2" d="M239.5,81.26l2.95-3.53c1.62,1.41,3.71,2.37,5.58,2.37,2.14,0,3.19-.84,3.19-2.19,0-1.43-1.29-1.89-3.28-2.71l-2.95-1.26c-2.36-.96-4.59-2.89-4.59-6.19,0-3.77,3.36-6.77,8.09-6.77,2.62,0,5.35,1.03,7.31,2.98l-2.59,3.24c-1.5-1.15-2.92-1.78-4.72-1.78s-2.9.74-2.9,2.04c0,1.39,1.49,1.9,3.47,2.69l2.9,1.17c2.78,1.12,4.51,2.97,4.51,6.18,0,3.77-3.15,7.04-8.56,7.04-2.96,0-6.1-1.12-8.42-3.29Z"/><path class="cls-2" d="M260.53,61.4h5.14v22.73h-5.14v-22.73Z"/><path class="cls-2" d="M275.44,65.71h-6.26v-4.31h17.65v4.31h-6.26v18.42h-5.14v-18.42Z"/><path class="cls-2" d="M300.79,84.13h5.44l-7.14-22.73h-6.15l-7.14,22.73h5.25l1.4-5.41h6.93l1.4,5.41ZM293.49,74.72l.55-2.1c.63-2.27,1.24-4.93,1.79-7.33h.14c.61,2.37,1.21,5.06,1.85,7.33l.54,2.1h-4.86Z"/><path class="cls-2" d="M311.22,65.71h-6.26v-4.31h17.65v4.31h-6.26v18.42h-5.14v-18.42Z"/><path class="cls-2" d="M125,25h14.34v4.31h-9.21v5.27h7.86v4.31h-7.86v8.84h-5.14v-22.73Z"/><path class="cls-2" d="M161.5,47.73l-5.14-9.09c2.43-1.1,4.05-3.22,4.05-6.56,0-5.4-3.95-7.08-8.77-7.08h-8.19v22.73h5.14v-8.18h2.83l4.34,8.18h5.75ZM148.58,29.08h2.63c2.7,0,4.15.75,4.15,3s-1.45,3.39-4.15,3.39h-2.63v-6.39Z"/><path class="cls-2" d="M165,25h14.24v4.31h-9.1v4.56h7.75v4.31h-7.75v5.24h9.45v4.31h-14.59v-22.73Z"/><path class="cls-2" d="M184.28,25h5.14v22.73h-5.14v-22.73Z"/><path class="cls-2" d="M194.6,25h14.24v4.31h-9.1v4.56h7.75v4.31h-7.75v5.24h9.45v4.31h-14.59v-22.73Z"/><path class="cls-2" d="M125,102.27h6.51c4.6,0,7.69,1.64,7.69,5.55,0,2.29-1.21,4.25-3.4,4.94v.14c2.81.52,4.74,2.33,4.74,5.46,0,4.43-3.45,6.64-8.54,6.64h-6.99v-22.73ZM130.96,112.08c4.19,0,5.9-1.51,5.9-3.97,0-2.87-1.97-3.93-5.75-3.93h-3.74v7.9h3.59ZM131.58,123.09c4.14,0,6.63-1.49,6.63-4.79,0-2.99-2.38-4.38-6.63-4.38h-4.21v9.17h4.21Z"/><path class="cls-2" d="M145.36,102.27h12.83v2.01h-10.47v7.72h8.81v2.01h-8.81v8.97h10.81v2.01h-13.18v-22.73Z"/><path class="cls-2" d="M178.79,125l-5.97-10.16c3.27-.65,5.39-2.75,5.39-6.33,0-4.58-3.18-6.24-7.76-6.24h-6.87v22.73h2.37v-9.94h4.4l5.74,9.94h2.7ZM165.95,104.21h4.09c3.73,0,5.79,1.13,5.79,4.3s-2.06,4.61-5.79,4.61h-4.09v-8.91Z"/><path class="cls-2" d="M183.08,102.27h2.37v20.71h10.14v2.01h-12.51v-22.73Z"/><path class="cls-2" d="M199.77,102.27h2.37v22.73h-2.37v-22.73Z"/><path class="cls-2" d="M208.73,102.27h2.46l8.76,14.98,2.5,4.64h.14c-.12-2.27-.3-4.68-.3-6.99v-12.63h2.25v22.73h-2.46l-8.76-14.99-2.5-4.63h-.14c.12,2.25.3,4.53.3,6.84v12.79h-2.25v-22.73Z"/></g></svg>